# xmcd
#
# Track frame offsets:
#	150
#	2196
#	16569
#	20770
#	27824
#	43829
#	46339
#	60855
#	67554
#	83963
#	98403
#	123056
#	125545
#	141341
#	150044
#	164648
#	167554
#	175856
#	203293
#	214890
#	224073
#	230435
#	243968
#	258038
#	259865
#	269485
#	272791
#	279484
#	288616
#	305025
#
# Disc length: 4159 seconds
#
# Revision: 1
# Processed by: cddbd v1.5.2PL0 Copyright (c) Steve Scherf et al.
# Submitted via: audiograbber 1.83.01
#
DISCID=9a103d1e
DTITLE=Marty Stuart - The Pilgrim (Deluxe Edition)
DYEAR=2019
DGENRE=Country
TTITLE0=Intro (Marty Stuart/The Pilgrim) (Instrumental)
TTITLE1=Sometimes The Pleasure's Worth The Pain
TTITLE2=The Pilgrim (Act I)
TTITLE3=Harlan County
TTITLE4=Reasons
TTITLE5=Love Can Go To...
TTITLE6=Red, Red Wine And Cheatin' Songs
TTITLE7=Truck Stop
TTITLE8=Hobo's Prayer
TTITLE9=Goin' Nowhere Fast
TTITLE10=The Observations Of A Crow
TTITLE11=Intermission (Instrumental)
TTITLE12=The Greatest Love Of All Time
TTITLE13=The Greatest Love Of All Time ((Reprise))
TTITLE14=Draggin' Around These Chains Of Love
TTITLE15=The Pilgrim (Act II)
TTITLE16=Redemption
TTITLE17=The Pilgrim (Act III)
TTITLE18=Outro (Marty Stuart/The Pilgrim)
TTITLE19=Mr. John Henry, Steel Driving Man (Instrumental)
TTITLE20=The Pilgrim (Act IV) (Unreleased)
TTITLE21=That'll Be All Right with Me (Unreleased)
TTITLE22=Been Lonely Too Long (Unreleased)
TTITLE23=I Think We're In Texas (Unreleased)
TTITLE24=Shout Little Lulie (Unreleased)
TTITLE25=Call and Response (Unreleased)
TTITLE26=Evelina (Unreleased)
TTITLE27=Tennessee Wagoner (Unreleased)
TTITLE28=Even Trains Have to Cry (Unreleased)
TTITLE29=The Vanishing (Unreleased)
EXTD=
EXTT0=
EXTT1=
EXTT2=
EXTT3=
EXTT4=
EXTT5=
EXTT6=
EXTT7=
EXTT8=
EXTT9=
EXTT10=
EXTT11=
EXTT12=
EXTT13=
EXTT14=
EXTT15=
EXTT16=
EXTT17=
EXTT18=
EXTT19=
EXTT20=
EXTT21=
EXTT22=
EXTT23=
EXTT24=
EXTT25=
EXTT26=
EXTT27=
EXTT28=
EXTT29=
PLAYORDER=
